<?xml version="1.0" encoding="UTF-8"?><svg version="1.1" width="19px" height="19px" viewBox="0 0 19.0 19.0" xmlns="http://www.w3.org/2000/svg" xmlns:xlink="http://www.w3.org/1999/xlink"><defs><clipPath id="i0"><path d="M6.78194444,0 C8.64675926,0 10.2344907,0.659722222 11.5451389,1.97916667 C12.855787,3.29861111 13.5111111,4.89074074 13.5111111,6.75555556 C13.5111111,7.51203704 13.387963,8.24212963 13.1416667,8.94583333 C12.8953704,9.64953704 12.5259259,10.3092593 12.0333333,10.925 L19,17.8388889 L17.8388889,19 L10.8986111,12.0597222 C10.3708333,12.5171296 9.75509259,12.8733796 9.05138889,13.1284722 C8.34768519,13.3835648 7.6,13.5111111 6.80833333,13.5111111 C4.90833333,13.5111111 3.29861111,12.8513889 1.97916667,11.5319444 C0.659722222,10.2125 0,8.62037037 0,6.75555556 C0,4.89074074 0.659722222,3.29861111 1.97916667,1.97916667 C3.29861111,0.659722222 4.89953704,0 6.78194444,0 Z M6.78194444,1.58333333 C5.33935185,1.58333333 4.11226852,2.08912037 3.10069444,3.10069444 C2.08912037,4.11226852 1.58333333,5.33055556 1.58333333,6.75555556 C1.58333333,8.18055556 2.08912037,9.39884259 3.10069444,10.4104167 C4.11226852,11.4219907 5.33935185,11.9277778 6.78194444,11.9277778 C8.20694444,11.9277778 9.42083333,11.4219907 10.4236111,10.4104167 C11.4263889,9.39884259 11.9277778,8.18055556 11.9277778,6.75555556 C11.9277778,5.33055556 11.4263889,4.11226852 10.4236111,3.10069444 C9.42083333,2.08912037 8.20694444,1.58333333 6.78194444,1.58333333 Z"></path></clipPath></defs><g clip-path="url(#i0)"><polygon points="0,0 19,0 19,19 0,19 0,0" stroke="none" fill="#333333"></polygon></g></svg>